<?xml version="1.0" encoding="UTF-8"?>
<svg id="Layer_1" xmlns="http://www.w3.org/2000/svg" version="1.1" viewBox="0 0 267.2 44">
  <!-- Generator: Adobe Illustrator 29.1.0, SVG Export Plug-In . SVG Version: 2.1.0 Build 142)  -->
  <defs>
    <style>
      .st0 {
        fill: #fff;
      }

      .st1 {
        fill: #609440;
      }
    </style>
  </defs>
  <g>
    <rect class="st1" x="29.9" y="10.2" width="237.3" height="23.5"/>
    <path class="st0" d="M22,.8C10.3.8.8,10.3.8,22s9.5,21.2,21.2,21.2,21.2-9.5,21.2-21.2S33.7.8,22,.8h0Z"/>
    <path class="st1" d="M22,44C9.9,44,0,34.1,0,22S9.9,0,22,0s22,9.9,22,22-9.9,22-22,22h0ZM22,.8C10.3.8.8,10.3.8,22s9.5,21.2,21.2,21.2,21.2-9.5,21.2-21.2S33.7.8,22,.8h0Z"/>
    <circle class="st1" cx="22" cy="22" r="19.5"/>
  </g>
  <g>
    <path class="st0" d="M55.4,22.4h0c0-2.9,2.3-5.3,5.5-5.3s5.5,2.3,5.5,5.2h0c0,2.9-2.3,5.3-5.5,5.3s-5.5-2.3-5.5-5.2ZM63.5,22.4h0c0-1.5-1.1-2.8-2.6-2.8s-2.6,1.2-2.6,2.7h0c0,1.5,1.1,2.8,2.6,2.8s2.6-1.2,2.6-2.7Z"/>
    <path class="st0" d="M69.2,19.8h-3v-2.5h8.9v2.5h-3v7.7h-2.8v-7.7h0Z"/>
    <path class="st0" d="M75.5,17.3h4.8c1.6,0,2.6.4,3.3,1.1.6.6.9,1.4.9,2.4h0c0,1.6-.8,2.6-2.1,3.1l2.4,3.5h-3.2l-2-3.1h-1.2v3.1h-2.8v-10.1h-.1ZM80.2,22.2c1,0,1.5-.5,1.5-1.2h0c0-.8-.6-1.2-1.5-1.2h-1.8v2.4h1.9,0Z"/>
    <path class="st0" d="M84.9,22.4h0c0-2.9,2.3-5.3,5.5-5.3s5.5,2.3,5.5,5.2h0c0,2.9-2.3,5.3-5.5,5.3s-5.5-2.3-5.5-5.2ZM92.9,22.4h0c0-1.5-1.1-2.8-2.6-2.8s-2.6,1.2-2.6,2.7h0c0,1.5,1.1,2.8,2.6,2.8s2.6-1.2,2.6-2.7Z"/>
    <path class="st0" d="M95.7,26l1.6-1.9c1,.8,2.1,1.2,3.3,1.2s1.2-.3,1.2-.7h0c0-.4-.3-.7-1.7-1-2.2-.5-3.8-1.1-3.8-3.2h0c0-1.9,1.5-3.3,3.9-3.3s3.1.5,4.2,1.3l-1.4,2c-.9-.7-1.9-1-2.8-1s-1,.3-1,.7h0c0,.5.3.7,1.8,1,2.3.5,3.8,1.3,3.8,3.2h0c0,2.1-1.6,3.3-4.1,3.3s-3.5-.6-4.8-1.7h-.2Z"/>
  </g>
  <path class="st0" d="M23,36.5c0-.3-.2-.8-.4-1.1.3,0,.6,0,.9.3,0-.3-.3-.8-.6-1.1.3,0,.6,0,.9.2,0-.3-.4-.7-.7-1h.9c0-.3-.5-.6-.9-.9.3,0,.6,0,.9,0-.1-.2-.6-.6-1-.7.2,0,.6-.2.9-.2-.2-.2-.7-.5-1.1-.6.2-.1.5-.3.8-.3-.2-.2-.7-.4-1.1-.4.2-.2.5-.3.8-.5-.2-.2-.8-.3-1.2-.3.2-.2.4-.4.7-.6-.2-.1-.8-.2-1.2-.1.2-.2.4-.5.6-.7-.3-.1-.8,0-1.2,0,.1-.2.3-.5.5-.7-.3,0-.8,0-1.2.2,0-.3.2-.5.4-.8-.3,0-.8.2-1.2.4,0-.3.2-.6.3-.8-.3,0-.8.3-1.1.5,0-.3,0-.6.2-.9-.3,0-.7.4-1,.7v-.9c-.3,0-.7.5-.9.8v-.9c-.2.1-.6.6-.8.9,0-.2-.2-.6-.2-.9-.2.1-.5.6-.6,1-.1-.2-.2-.5-.3-.9-.2.2-.4.7-.5,1.1-.2-.2-.3-.5-.4-.8-.2.2-.3.7-.3,1.2-.2-.2-.4-.5-.5-.7-.2.2-.2.8-.2,1.2-.2-.2-.4-.4-.6-.7-.1.2,0,.8,0,1.2-.2-.1-.5-.3-.7-.6-.1.3,0,1.2.3,1.5h0c-.3,0-.7-.2-1.1-.5,0,.3.2.8.4,1.2-.3,0-.6-.2-.9-.3,0,.3.3.8.5,1.1-.3,0-.6,0-.9-.2,0,.3.4.7.7,1h-.9c0,.3.5.7.8.9h-.9c.1.2.6.6.9.8-.3,0-.6.2-.9.2.1.2.6.5,1,.6-.2,0-.5.2-.9.3.2.2.7.4,1.1.5-.2.2-.5.3-.8.4.2.2.8.3,1.2.3-.2.2-.5.4-.7.5.2,0,.8.2,1.2.2-.2.2-.4.4-.7.6.2,0,.8,0,1.2,0-.1.2-.3.5-.6.7.3,0,.8,0,1.2-.2,0,.2-.3.5-.5.8.3,0,.8,0,1.2-.3,0,.3-.2.6-.4.8.3,0,.8-.2,1.1-.5,0,.3-.1.6-.2.9.3,0,.7-.3,1-.6,0,.3,0,.6-.1.9.3,0,.7-.4.9-.8v.9c.3,0,.6-.5.8-.9,0,.3.1.6.1.9.2,0,.5-.6.7-1,.1.2.2.6.3.9.2-.2.4-.7.5-1.1.1.2.3.5.4.8.2-.2.3-.7.4-1.2.2.2.3.5.5.8.2-.2.2-.8.2-1.2.2.2.4.4.6.7.1-.2.1-.8,0-1.2.2,0,.5.4.7.6,0-.3,0-.8-.1-1.2.2,0,.5.3.8.5,0-.3,0-.8-.3-1.2.3,0,.5.2.8.4M17.9,33.7c-.2.2-.5.4-.8.4s-.6,0-.9-.3-.4-.5-.4-.8,0-.6.3-.9c.2-.2.5-.4.8-.4h.5c.1,0,.2.1.3.2.2.2.4.5.4.8s0,.6-.3.9"/>
  <path class="st0" d="M21,14.5h.3s-.1.2-.2.3h0v.3c.2-.2.4-.4.5-.5l.4-.2v.7c.2-.2.4-.4.6-.4h.4c0-.1,0,.3,0,.3v.2c.2-.2.5-.3.7-.3h.5l-.2.4v.2c.3-.1.5-.2.7-.2h.5l-.2.4v.2c.2,0,.5-.2.7-.1h.5l-.3.4s0,.1-.1.2h1.1c0,.1-.3.5-.3.5,0,0,0,.1-.1.2h.9s.1-.1.2-.3c.1.2.2.6.3.9.2-.2.4-.7.6-1.1.1.2.3.5.4.8.2-.2.3-.7.4-1.2.2.2.4.5.5.8.2-.2.2-.8.2-1.2.2.2.4.4.6.7.1-.2.1-.8,0-1.2.2.1.5.4.7.6,0-.3,0-.8-.1-1.2.2.1.5.3.8.5,0-.3,0-.8-.3-1.2.3,0,.5.2.8.4,0-.3-.2-.8-.4-1.1.3,0,.6.1.9.3,0-.3-.3-.8-.6-1.1.3,0,.6,0,.9.2,0-.3-.4-.7-.7-1h.9c0-.3-.5-.6-.9-.9.3,0,.6-.1.9,0,0-.2-.6-.6-1-.7.2-.1.6-.2.9-.2-.2-.2-.7-.5-1.1-.6.2-.1.5-.3.8-.3-.2-.2-.7-.4-1.1-.4.2-.2.5-.3.8-.5-.2-.2-.8-.3-1.2-.3.2-.2.4-.4.7-.6-.2,0-.8-.2-1.2,0,.2-.2.4-.5.6-.7-.3,0-.8,0-1.2,0,.1-.2.3-.5.5-.7-.3,0-.8,0-1.2.2,0-.3.2-.5.4-.8-.3,0-.8.2-1.2.4,0-.3.2-.6.3-.8-.3,0-.8.3-1.1.5,0-.3,0-.6.2-.9-.3,0-.7.4-1,.7v-.9c-.3,0-.7.5-.9.8v-.9c-.2,0-.6.6-.8.9,0-.2-.2-.6-.2-.9-.2,0-.5.6-.6,1-.1-.2-.2-.5-.3-.9-.2.2-.4.7-.5,1.1-.2-.2-.3-.5-.4-.8-.2.2-.3.7-.3,1.2-.2-.2-.4-.5-.5-.7-.1.2-.2.8-.2,1.2-.2-.2-.4-.4-.6-.7-.1.2,0,.8,0,1.2-.2,0-.5-.3-.7-.6-.1.3,0,1.2.3,1.5h0c-.3,0-.7-.2-1.1-.5,0,.3.2.8.4,1.2-.3,0-.6-.2-.9-.3,0,.3.3.8.5,1.1-.3,0-.6,0-.9-.2,0,.3.4.7.7,1h-.9c0,.3.5.7.8.9h-.9c.1.2.6.6.9.8-.2,0-.6.2-.9.2.1.2.6.5,1,.6-.2.1-.5.2-.9.3.2.2.7.4,1.1.5-.2.2-.5.3-.8.4.2.2.7.3,1.2.3-.2.2-.5.4-.7.5.2.1.5.2.8.2h.1-.2ZM25.2,10.1c.2-.2.5-.4.8-.4h.5c.1,0,.2.1.3.2.2.2.4.5.4.8s0,.6-.3.9c-.2.2-.5.4-.8.4s-.6,0-.9-.3c-.2-.2-.4-.5-.4-.8s0-.6.3-.9"/>
  <path class="st0" d="M16.5,25.6h.3s-.1.2-.2.3h0v.3l.5-.5.4-.2v.7c.2-.2.4-.4.6-.4h.4c0-.1,0,.3,0,.3v.2c.2-.2.5-.3.7-.3h.5l-.2.4v.2c.3-.1.5-.2.7-.2h.5l-.2.4v.2c.2,0,.5-.2.7-.1h.5l-.3.4s0,.1-.1.2h1.1c0,.1-.3.5-.3.5,0,0,0,.1-.1.2h.9s.1-.1.2-.3c.1.2.2.6.3.9.2-.2.4-.7.6-1.1.1.2.3.5.4.8.2-.2.3-.7.4-1.2.2.2.4.5.5.8.2-.2.2-.8.2-1.2.2.2.4.4.6.7.1-.2.1-.8,0-1.2.2.1.5.4.7.6,0-.3,0-.8-.1-1.2.2.1.5.3.8.5,0-.3,0-.8-.3-1.2.3,0,.5.2.8.4,0-.3-.2-.8-.4-1.1.3,0,.6.1.9.3,0-.3-.3-.8-.6-1.1.3,0,.6,0,.9.2,0-.3-.4-.7-.7-1h.9c0-.3-.5-.6-.9-.9.3,0,.6-.1.9,0-.1-.2-.6-.6-1-.7.2-.1.6-.2.9-.2-.2-.2-.7-.5-1.1-.6.2-.1.5-.3.8-.3-.2-.2-.7-.4-1.1-.4.2-.2.5-.3.8-.5-.2-.2-.8-.3-1.2-.3.2-.2.4-.4.7-.6-.2-.1-.8-.2-1.2-.1.2-.2.4-.5.6-.7-.3-.1-.8,0-1.2,0,.1-.2.3-.5.5-.7-.3,0-.8,0-1.2.2,0-.3.2-.5.4-.8-.3,0-.8.2-1.2.4,0-.3.2-.6.3-.8-.3,0-.8.3-1.1.5,0-.3,0-.6.2-.9-.3,0-.7.4-1,.7v-.9c-.3,0-.7.5-.9.8v-.9c-.2.1-.6.6-.8.9,0-.2-.2-.6-.2-.9-.2.1-.5.6-.6,1-.1-.2-.2-.5-.3-.9-.2.2-.4.7-.5,1.1-.2-.2-.3-.5-.4-.8-.2.2-.3.7-.3,1.2-.2-.2-.4-.5-.5-.7-.1.2-.2.8-.2,1.2-.2-.2-.4-.4-.6-.7-.1.2,0,.8,0,1.2-.2-.1-.5-.3-.7-.6-.1.3,0,1.2.3,1.5h0c-.3,0-.7-.2-1.1-.5,0,.3.2.8.4,1.2-.3,0-.6-.2-.9-.3,0,.3.3.8.5,1.1-.3,0-.6,0-.9-.2,0,.3.4.7.7,1h-.9c0,.3.5.7.8.9h-.9c.1.2.6.6.9.8-.2,0-.6.2-.9.2.1.2.6.5,1,.6-.2.1-.5.2-.9.3.2.2.7.4,1.1.5-.2.2-.5.3-.8.4.2.2.7.3,1.2.3-.2.2-.5.4-.7.5.2.1.5.2.8.2h.1-.2ZM20.7,21.1c.2-.2.5-.4.8-.4h.5c.1,0,.2.1.3.2.2.2.4.5.4.8s0,.6-.3.9-.5.4-.8.4-.6,0-.9-.3-.4-.5-.4-.8,0-.6.3-.9"/>
</svg>