<?xml version="1.0" encoding="UTF-8"?>
<svg id="Layer_1" xmlns="http://www.w3.org/2000/svg" version="1.1" viewBox="0 0 267.2 44">
  <!-- Generator: Adobe Illustrator 29.1.0, SVG Export Plug-In . SVG Version: 2.1.0 Build 142)  -->
  <defs>
    <style>
      .st0 {
        fill: #fff;
      }

      .st1 {
        fill: #609440;
      }
    </style>
  </defs>
  <g>
    <polygon class="st1" points="29.9 10.2 267.2 10.2 239.6 33.7 29.9 33.7 29.9 10.2"/>
    <path class="st0" d="M22,.8C10.3.8.8,10.3.8,22s9.5,21.2,21.2,21.2,21.2-9.5,21.2-21.2S33.7.8,22,.8h0Z"/>
    <path class="st1" d="M22,44C9.9,44,0,34.1,0,22S9.9,0,22,0s22,9.9,22,22-9.9,22-22,22h0ZM22,.8C10.3.8.8,10.3.8,22s9.5,21.2,21.2,21.2,21.2-9.5,21.2-21.2S33.7.8,22,.8h0Z"/>
    <circle class="st1" cx="22" cy="22" r="19.5"/>
  </g>
  <g>
    <path class="st0" d="M58.3,19.8h-3v-2.5h8.9v2.5h-3v7.7h-2.8v-7.7h0Z"/>
    <path class="st0" d="M64.5,23v-5.7h2.9v5.6c0,1.5.7,2.2,1.9,2.2s1.9-.7,1.9-2.1v-5.7h2.9v5.6c0,3.3-1.9,4.7-4.8,4.7s-4.7-1.5-4.7-4.6h-.1Z"/>
    <path class="st0" d="M74.9,17.3h4.8c1.6,0,2.6.4,3.3,1.1.6.6.9,1.4.9,2.4h0c0,1.6-.8,2.6-2.1,3.1l2.4,3.5h-3.2l-2-3.1h-1.2v3.1h-2.8v-10.1h-.1ZM79.6,22.2c1,0,1.5-.5,1.5-1.2h0c0-.8-.6-1.2-1.5-1.2h-1.8v2.4h1.9,0Z"/>
    <path class="st0" d="M84.6,17.3h5.2c1.3,0,2.2.3,2.8.9.4.4.7.9.7,1.6h0c0,1.2-.7,1.9-1.6,2.3,1.2.4,2,1.1,2,2.5h0c0,1.8-1.4,2.8-3.8,2.8h-5.2v-10.1h0ZM89.1,21.4c.9,0,1.3-.3,1.3-.9h0c0-.6-.4-.9-1.3-.9h-1.8v1.8h1.8ZM89.5,25.2c.9,0,1.3-.3,1.3-.9h0c0-.6-.4-.9-1.4-.9h-2.1v1.9h2.2Z"/>
    <path class="st0" d="M93.9,22.4h0c0-2.9,2.3-5.3,5.5-5.3s5.5,2.3,5.5,5.2h0c0,2.9-2.3,5.3-5.5,5.3s-5.5-2.3-5.5-5.2ZM101.9,22.4h0c0-1.5-1.1-2.8-2.6-2.8s-2.6,1.2-2.6,2.7h0c0,1.5,1.1,2.8,2.6,2.8s2.6-1.2,2.6-2.7Z"/>
    <path class="st0" d="M112.3,17.3h2.7l4.3,10.2h-3l-.7-1.8h-3.9l-.7,1.8h-3s4.3-10.2,4.3-10.2ZM114.8,23.5l-1.1-2.9-1.1,2.9h2.3-.1Z"/>
    <path class="st0" d="M120.8,19.8h-3v-2.5h8.9v2.5h-3v7.7h-2.8v-7.7h0Z"/>
    <path class="st0" d="M126.4,22.4h0c0-2.9,2.3-5.3,5.5-5.3s5.5,2.3,5.5,5.2h0c0,2.9-2.3,5.3-5.5,5.3s-5.5-2.3-5.5-5.2ZM134.4,22.4h0c0-1.5-1.1-2.8-2.6-2.8s-2.6,1.2-2.6,2.7h0c0,1.5,1.1,2.8,2.6,2.8s2.6-1.2,2.6-2.7Z"/>
    <path class="st0" d="M138.1,17.3h3l2.4,3.9,2.4-3.9h3v10.1h-2.8v-5.8l-2.6,4h0l-2.6-3.9v5.8h-2.8v-10.1h0Z"/>
    <path class="st0" d="M150,17.3h2.8v10.1h-2.8v-10.1Z"/>
    <path class="st0" d="M153.6,25.4l5.1-5.7h-4.9v-2.4h8.8v2l-5.1,5.7h5.1v2.4h-9v-2h0Z"/>
    <path class="st0" d="M166.8,17.3h2.7l4.3,10.2h-3l-.7-1.8h-3.9l-.7,1.8h-3l4.3-10.2h0ZM169.3,23.5l-1.1-2.9-1.1,2.9h2.3,0Z"/>
    <path class="st0" d="M174.1,17.3h3.9c3.6,0,5.7,2.1,5.7,5h0c0,3-2.1,5.1-5.8,5.1h-3.9v-10.1h.1ZM178.1,25c1.7,0,2.8-.9,2.8-2.6h0c0-1.7-1.1-2.6-2.8-2.6h-1.1v5.2h1.1Z"/>
    <path class="st0" d="M184.1,22.4h0c0-2.9,2.3-5.3,5.5-5.3s5.5,2.3,5.5,5.2h0c0,2.9-2.3,5.3-5.5,5.3s-5.5-2.3-5.5-5.2ZM192.2,22.4h0c0-1.5-1.1-2.8-2.6-2.8s-2.6,1.2-2.6,2.7h0c0,1.5,1.1,2.8,2.6,2.8s2.6-1.2,2.6-2.7Z"/>
    <path class="st0" d="M195.8,17.3h4.8c1.6,0,2.6.4,3.3,1.1.6.6.9,1.4.9,2.4h0c0,1.6-.8,2.6-2.1,3.1l2.4,3.5h-3.2l-2-3.1h-1.2v3.1h-2.8v-10.1h0ZM200.5,22.2c1,0,1.5-.5,1.5-1.2h0c0-.8-.6-1.2-1.5-1.2h-1.8v2.4h1.9,0Z"/>
    <path class="st0" d="M205.5,17.3h8.2v2.4h-5.4v1.5h4.9v2.2h-4.9v1.6h5.5v2.4h-8.2v-10.1h-.1Z"/>
    <path class="st0" d="M213.7,26l1.6-1.9c1,.8,2.1,1.2,3.3,1.2s1.2-.3,1.2-.7h0c0-.4-.3-.7-1.7-1-2.2-.5-3.8-1.1-3.8-3.2h0c0-1.9,1.5-3.3,3.9-3.3s3.1.5,4.2,1.3l-1.4,2c-.9-.7-1.9-1-2.8-1s-1,.3-1,.7h0c0,.5.3.7,1.8,1,2.3.5,3.8,1.3,3.8,3.2h0c0,2.1-1.6,3.3-4.1,3.3s-3.5-.6-4.8-1.7h-.2Z"/>
  </g>
  <g>
    <path class="st0" d="M19.1,9.9c.7,0,1.6.2,2.2.2h1c0,.1,5.7,1.4,6.9,1.9s2.2,2.7,2.2,3.3c1.5-.2,2.9-.2,2.9-.2l.3,7.1c-.7.4-1,1.2-.6,1.2s0,0,0,0h0c0,0,0,.3,0,.4,0,.1-.5,1.1-.9,1.3,0,0-.3.1-.6.1-.6,0-1.2-.1-1.2-.1h0c-1,0-3.1.6-4,1.5s-.2,1.6,2.3,1.6.8,0,1.3,0c.2,1,.2,1.6.2,1.6h-.3c-.5,0-1.3,0-.7.7.8.8,1.3,2.1,1.3,2.1l-4.4.4v-1.1h-.7c-1.1,0-2.4-.1-2.8-.6-.5-.6-.9-.9-1.1-1.1h-.4v.6c0,1.9-1.6,3.4-3.4,3.4s0,0,0,0c-1.9,0-3.4-1.6-3.4-3.5v-.3l-6-2.8.3-.4,5.9,2.5c.4-1.2,1.4-2.1,2.7-2.3.4-.5.8-1,.5-1.1h-.2c-.5,0-1.6.4-2.3.4s-.3,0-.4,0c-.5-.3-3.9-3.1-4.2-3.4s-.3-.9,0-2.1c.3-1.3,1-4.1,1.2-4.8.2-.7,1.3-1.9,1.9-2.5.6-.6,2.9-3,3.6-3.4.3-.1.6-.2,1-.2M19.1,8.9h0c-.6,0-1.1.1-1.5.3-.6.3-1.7,1.4-3,2.7l-.8.8c-.5.4-1.9,1.9-2.2,2.9-.2.7-.9,3.6-1.2,4.9s-.6,2.5.3,3.2c0,0,.4.3.8.7,2,1.7,3.1,2.6,3.5,2.8.1,0,.2.1.4.1-.3.3-.5.6-.7.9l-5-2.1-.8-.3-.5.7-.3.4-.7,1,1.1.5,5.4,2.5c.1,2.3,2,4.1,4.4,4.2h0c2,0,3.7-1.3,4.2-3.1.6.5,1.5.8,3.2.8l-.2,1.2h1.2c0,0,4.4-.5,4.4-.5h1.3c0,0-.5-1.4-.5-1.4,0,0-.3-.7-.7-1.4h.6v-1.1s0-.7-.3-1.8l-.2-.9h-.9c-.4.1-.9.2-1.2.2-.6,0-1,0-1.3-.1.8-.6,2.3-1,3.1-1s.8.1,1.3.1.9,0,1.2-.3c.4-.3.7-.8,1-1.4h0c.2-.3.5-.8.3-1.4l.5-.3v-.6l-.3-7.1v-1h-1s-1,0-2.1.2c-.4-1.1-1.4-2.7-2.5-3.1-1.2-.5-6.4-1.7-7-1.8h-1c-.2-.1-.4-.2-.6-.2-.5,0-1.2-.2-1.7-.2"/>
    <polygon class="st0" points="31.2 19.4 33.8 19.2 33.9 22.2 31.4 22.4 31.2 19.4"/>
    <polygon class="st0" points="31 16 33.6 15.8 33.7 18.7 31.2 18.9 31 16"/>
  </g>
</svg>