<?xml version="1.0" encoding="UTF-8"?>
<svg id="Layer_1" xmlns="http://www.w3.org/2000/svg" version="1.1" viewBox="0 0 267.2 44">
  <!-- Generator: Adobe Illustrator 29.1.0, SVG Export Plug-In . SVG Version: 2.1.0 Build 142)  -->
  <defs>
    <style>
      .st0 {
        fill: #274e5f;
      }

      .st1 {
        fill: #fff;
      }
    </style>
  </defs>
  <g>
    <rect class="st0" x="29.9" y="10.2" width="237.3" height="23.5"/>
    <path class="st1" d="M22,.8C10.3.8.8,10.3.8,22s9.5,21.2,21.2,21.2,21.2-9.5,21.2-21.2S33.7.8,22,.8h0Z"/>
    <path class="st0" d="M22,44C9.9,44,0,34.1,0,22S9.9,0,22,0s22,9.9,22,22-9.9,22-22,22h0ZM22,.8C10.3.8.8,10.3.8,22s9.5,21.2,21.2,21.2,21.2-9.5,21.2-21.2S33.7.8,22,.8h0Z"/>
    <circle class="st0" cx="22" cy="22" r="19.5"/>
  </g>
  <g>
    <path class="st1" d="M58.3,19.8h-3v-2.5h8.9v2.5h-3v7.7h-2.8v-7.7Z"/>
    <path class="st1" d="M64.6,17.3h4.8c1.6,0,2.6.4,3.3,1.1.6.6.9,1.4.9,2.4h0c0,1.6-.8,2.6-2.1,3.1l2.4,3.5h-3.2l-2-3.1h-1.2v3.1h-2.8v-10.1ZM69.3,22.2c1,0,1.5-.5,1.5-1.2h0c0-.8-.6-1.2-1.5-1.2h-1.8v2.4h1.9Z"/>
    <path class="st1" d="M77.7,17.3h2.7l4.3,10.2h-3l-.7-1.8h-3.9l-.7,1.8h-3l4.3-10.2ZM80.1,23.5l-1.1-2.9-1.1,2.9h2.3Z"/>
    <path class="st1" d="M84,22.4h0c0-3,2.3-5.3,5.3-5.3s3.4.9,4.3,2.1l-2.1,1.6c-.6-.7-1.2-1.2-2.2-1.2-1.4,0-2.4,1.2-2.4,2.7h0c0,1.6,1,2.7,2.4,2.7s1.7-.5,2.3-1.2l2.1,1.5c-1,1.3-2.2,2.3-4.5,2.3s-5.2-2.2-5.2-5.2Z"/>
    <path class="st1" d="M96.6,19.8h-3v-2.5h8.9v2.5h-3v7.7h-2.8v-7.7Z"/>
    <path class="st1" d="M102.2,22.4h0c0-2.9,2.3-5.3,5.5-5.3s5.5,2.3,5.5,5.2h0c0,2.9-2.3,5.3-5.5,5.3s-5.5-2.3-5.5-5.2ZM110.3,22.4h0c0-1.5-1.1-2.8-2.6-2.8s-2.6,1.2-2.6,2.7h0c0,1.5,1.1,2.8,2.6,2.8s2.6-1.2,2.6-2.7Z"/>
    <path class="st1" d="M113.9,17.3h4.8c1.6,0,2.6.4,3.3,1.1.6.6.9,1.4.9,2.4h0c0,1.6-.8,2.6-2.1,3.1l2.4,3.5h-3.2l-2-3.1h-1.2v3.1h-2.8v-10.1ZM118.5,22.2c1,0,1.5-.5,1.5-1.2h0c0-.8-.6-1.2-1.5-1.2h-1.8v2.4h1.9Z"/>
    <path class="st1" d="M123.6,17.3h2.8v10.1h-2.8v-10.1Z"/>
    <path class="st1" d="M127.3,25.4l5.1-5.7h-4.9v-2.4h8.8v2l-5.1,5.7h5.1v2.4h-9v-2Z"/>
    <path class="st1" d="M140.5,17.3h2.7l4.3,10.2h-3l-.7-1.8h-3.9l-.7,1.8h-3l4.3-10.2ZM143,23.5l-1.1-2.9-1.1,2.9h2.3Z"/>
    <path class="st1" d="M147.8,17.3h3.9c3.6,0,5.7,2.1,5.7,5h0c0,3-2.1,5.1-5.8,5.1h-3.9v-10.1ZM151.7,25c1.7,0,2.8-.9,2.8-2.6h0c0-1.7-1.1-2.6-2.8-2.6h-1.1v5.2h1.1Z"/>
    <path class="st1" d="M157.8,22.4h0c0-2.9,2.3-5.3,5.5-5.3s5.5,2.3,5.5,5.2h0c0,2.9-2.3,5.3-5.5,5.3s-5.5-2.3-5.5-5.2ZM165.9,22.4h0c0-1.5-1.1-2.8-2.6-2.8s-2.6,1.2-2.6,2.7h0c0,1.5,1.1,2.8,2.6,2.8s2.6-1.2,2.6-2.7Z"/>
    <path class="st1" d="M168.6,26l1.6-1.9c1,.8,2.1,1.2,3.3,1.2s1.2-.3,1.2-.7h0c0-.4-.3-.7-1.7-1-2.2-.5-3.8-1.1-3.8-3.2h0c0-1.9,1.5-3.3,3.9-3.3s3.1.5,4.2,1.3l-1.4,2c-.9-.7-1.9-1-2.8-1s-1,.3-1,.7h0c0,.5.3.7,1.8,1,2.3.5,3.8,1.3,3.8,3.2h0c0,2.1-1.6,3.3-4.1,3.3s-3.5-.6-4.8-1.7Z"/>
    <path class="st1" d="M181.4,17.3h8.2v2.4h-5.4v1.5h4.9v2.2h-4.9v1.6h5.5v2.4h-8.2v-10.1Z"/>
    <path class="st1" d="M190.3,17.3h2.6l4.2,5.4v-5.4h2.8v10.1h-2.5l-4.3-5.6v5.6h-2.8v-10.1Z"/>
    <path class="st1" d="M204.3,17.3h5.2c1.3,0,2.2.3,2.8.9.4.4.7.9.7,1.6h0c0,1.2-.7,1.9-1.6,2.3,1.2.4,2,1.1,2,2.5h0c0,1.8-1.4,2.8-3.8,2.8h-5.2v-10.1ZM208.8,21.4c.9,0,1.3-.3,1.3-.9h0c0-.6-.4-.9-1.3-.9h-1.8v1.8h1.8ZM209.2,25.2c.9,0,1.3-.3,1.3-.9h0c0-.6-.4-.9-1.4-.9h-2.1v1.9h2.2Z"/>
    <path class="st1" d="M217.4,17.3h2.7l4.3,10.2h-3l-.7-1.8h-3.9l-.7,1.8h-3l4.3-10.2ZM219.9,23.5l-1.1-2.9-1.1,2.9h2.3Z"/>
    <path class="st1" d="M224.7,17.3h4.8c1.6,0,2.6.4,3.3,1.1.6.6.9,1.4.9,2.4h0c0,1.6-.8,2.6-2.1,3.1l2.4,3.5h-3.2l-2-3.1h-1.2v3.1h-2.8v-10.1ZM229.4,22.2c1,0,1.5-.5,1.5-1.2h0c0-.8-.6-1.2-1.5-1.2h-1.8v2.4h1.9Z"/>
    <path class="st1" d="M234.4,17.3h4.8c1.6,0,2.6.4,3.3,1.1.6.6.9,1.4.9,2.4h0c0,1.6-.8,2.6-2.1,3.1l2.4,3.5h-3.2l-2-3.1h-1.2v3.1h-2.8v-10.1ZM239.1,22.2c1,0,1.5-.5,1.5-1.2h0c0-.8-.6-1.2-1.5-1.2h-1.8v2.4h1.9Z"/>
    <path class="st1" d="M247.4,17.3h2.7l4.3,10.2h-3l-.7-1.8h-3.9l-.7,1.8h-3l4.3-10.2ZM249.9,23.5l-1.1-2.9-1.1,2.9h2.3Z"/>
  </g>
  <g>
    <path class="st1" d="M30.3,21.4c0,0,.1,0,.2,0,.4,0,.7.4.8.8,0,.2,0,.3,0,.5,0,2.9,0,5.8,0,8.7s0,.6-.2.8c-.2.2-.4.3-.7.3-.8,0-1.5,0-2.3,0-.5,0-1-.4-1-.9,0-.7,0-1.3,0-2,0-.2,0-.2-.2-.2-1,0-2,0-2.9,0-.1,0-.2,0-.3.1-.2.3-.5.4-.8.4-.6,0-1.2,0-1.8,0-.3,0-.6-.1-.8-.4,0,0-.1-.1-.2-.1-1,0-2,0-3,0-.2,0-.2,0-.2.2,0,.6,0,1.3,0,1.9,0,.7-.5,1.1-1.1,1.1-.7,0-1.4,0-2.2,0s-1-.4-1-1c0-1.5,0-2.9,0-4.4s0-3.1,0-4.6c0-.7.2-1,.9-1.1.1,0,.1,0,0-.1-.5-.5-1.1-1.1-1.6-1.6,0,0-.1,0-.2,0-.5,0-1.1,0-1.6,0-.1,0-.2,0-.2.2,0,.3,0,.5,0,.8,0,.3-.1.4-.4.4-.2,0-.5,0-.7,0-.3,0-.4-.1-.4-.4,0-.3,0-.5,0-.8,0-.1,0-.2-.2-.2-1,0-2.1,0-3.1,0-.2,0-.2,0-.2.2,0,.3,0,.5,0,.8,0,.2-.1.3-.4.3-.3,0-.5,0-.8,0-.3,0-.4-.1-.4-.4,0-.3,0-.5,0-.8,0-.1,0-.2-.2-.2-.4,0-.4,0-.4-.4s0-.5,0-.8c0-.7.5-1.3,1.3-1.3,2,0,3.9,0,5.9,0,.4,0,.3,0,.3-.3,0-.8.5-1.3,1.3-1.3h5.3c.2,0,.3,0,.3-.2,0-.5.2-.9.7-1.1.2,0,.3,0,.5,0,2.4,0,4.8,0,7.2,0,.6,0,1,.3,1.2.8,0,.1,0,.2,0,.4,0,.2,0,.2.3.2,1.8,0,3.6,0,5.3,0,.7,0,1.3.5,1.3,1.3,0,.3,0,.3.3.3,2,0,4,0,6,0,.6,0,1.1.4,1.2,1,0,.3,0,.5,0,.8,0,.2,0,.3,0,.4q0,.3-.2.3c-.3,0-.3,0-.3.3,0,.2,0,.4,0,.6,0,.3-.1.4-.4.4-.2,0-.5,0-.7,0-.2,0-.3-.1-.4-.3,0-.3,0-.5,0-.8,0-.1,0-.2-.2-.2-1,0-2.1,0-3.1,0-.1,0-.2,0-.2.2,0,.3,0,.5,0,.8,0,.3-.1.4-.4.4-.3,0-.5,0-.8,0-.3,0-.4-.1-.4-.4,0-.3,0-.5,0-.8,0-.1,0-.2-.2-.2-.5,0-1.1,0-1.6,0,0,0-.1,0-.2,0-.6.6-1.1,1.1-1.7,1.7,0,0,0,0,0,0M21.9,20.9h0c1.1,0,2.2,0,3.3,0,.4,0,.7-.2.8-.6,0-.2,0-.3,0-.5-.1-1.1-.3-2.2-.4-3.3,0-.5-.4-.8-.9-.8-1.9,0-3.8,0-5.8,0-.5,0-.8.3-.9.8,0,.3,0,.7-.1,1-.1.8-.2,1.6-.3,2.4,0,.5.3.9.9.9,1.1,0,2.2,0,3.4,0M29.9,17.1h0s.3,0,.3,0c.8,0,1.6,0,2.3,0,0,0,.2,0,.2,0,.1-.3,0-.6-.4-.6-1.7,0-3.4,0-5.2,0-.2,0-.2,0-.2.3,0,0,0,.1,0,.2,0,.2,0,.2.3.2.9,0,1.7,0,2.6,0M14,17.1c.8,0,1.6,0,2.4,0q.5,0,.5-.5c0-.2,0-.2-.2-.2h-4.2c-.4,0-.7,0-1.1,0-.2,0-.3,0-.3.3h0c0,.3,0,.3.2.3.9,0,1.7,0,2.6,0M25.1,25.3h0c.3,0,.6,0,.9,0,.4,0,.8-.4.8-.8,0-.5-.3-.8-.8-.8-.2,0-.4,0-.6,0-.4,0-.7.2-1,.6-.2.3-.2.6-.3,1,0,.1,0,.1.1.1.3,0,.6,0,.9,0M18.7,25.3c.3,0,.6,0,.9,0,.1,0,.1,0,.1-.1,0-.2,0-.4-.1-.6-.1-.5-.6-.9-1.1-.9-.2,0-.4,0-.6,0-.5,0-.8.3-.8.8,0,.5.3.8.8.8.3,0,.5,0,.8,0M14.4,20.9s0,0,0,0c0-.4,0-.7,0-1.1,0-.1,0-.1-.1-.1-.3,0-.6,0-.9,0,0,0-.2,0-.3,0,.4.4.8.8,1.3,1.3M30.7,19.6c-.4,0-.8,0-1.2,0,0,0-.1,0-.1.1,0,.2,0,.3,0,.5v.7c.4-.4.9-.8,1.3-1.3"/>
    <path class="st1" d="M9.4,23.3c0,.2-.1.3-.3.3-.2,0-.3-.1-.3-.3,0-.2.1-.3.3-.3.2,0,.3.1.3.3"/>
    <path class="st1" d="M9.1,22.7c-.2,0-.3-.1-.3-.3,0-.2.1-.3.3-.3.2,0,.3.2.3.3,0,.2-.2.3-.3.3"/>
    <path class="st1" d="M34.7,22.7c-.2,0-.3-.2-.3-.3,0-.2.1-.3.3-.3.2,0,.3.1.3.3,0,.2-.1.3-.3.3"/>
    <path class="st1" d="M4.4,22.4c0,.2-.1.3-.3.3-.2,0-.3-.1-.3-.3,0-.2.1-.3.3-.3.2,0,.3.1.3.3"/>
    <path class="st1" d="M40.1,22.4c0,.2-.1.3-.3.3-.2,0-.3-.1-.3-.3,0-.2.1-.3.3-.3.2,0,.3.1.3.3"/>
    <path class="st1" d="M39.8,23c.2,0,.3.1.3.3,0,.2-.1.3-.3.3-.2,0-.3-.1-.3-.3,0-.2.2-.3.3-.3"/>
    <path class="st1" d="M35,23.3c0,.2-.1.3-.3.3-.2,0-.3-.1-.3-.3,0-.2.2-.3.3-.3.2,0,.3.1.3.3"/>
    <path class="st1" d="M4.1,23.6c-.2,0-.3-.1-.3-.3,0-.2.1-.3.3-.3.2,0,.3.1.3.3,0,.2-.1.3-.3.3"/>
    <path class="st1" d="M8.8,21.4c0,.2-.1.3-.3.3-.1,0-.3-.1-.3-.3s.1-.3.3-.3c.1,0,.3.1.3.3"/>
    <path class="st1" d="M35.3,21.7c-.1,0-.3-.1-.3-.3,0-.1.1-.3.3-.3s.3.1.3.3c0,.1-.1.3-.3.3"/>
    <path class="st1" d="M34.2,21.1c.2,0,.3.1.3.3,0,.2-.1.3-.3.3-.1,0-.3-.1-.3-.3,0-.2.1-.3.3-.3"/>
    <path class="st1" d="M10.3,22.3c-.2,0-.3-.1-.3-.3,0-.2.1-.3.3-.3.2,0,.3.1.3.3,0,.1-.1.3-.3.3"/>
    <path class="st1" d="M33.8,22c0,.1-.1.3-.3.3-.2,0-.3-.1-.3-.3,0-.1.1-.3.3-.3.2,0,.3.1.3.3"/>
    <path class="st1" d="M33.2,22.6c0,.1-.1.3-.3.3-.2,0-.3-.1-.3-.3,0-.1.1-.3.3-.3.2,0,.3.1.3.3"/>
    <path class="st1" d="M39.2,21.1c.2,0,.3.1.3.3,0,.2-.1.3-.3.3-.2,0-.3-.1-.3-.3,0-.2.1-.3.3-.3"/>
    <path class="st1" d="M36.2,22c0,.2-.1.3-.3.3-.2,0-.3-.1-.3-.3,0-.1.1-.3.3-.3.2,0,.3.1.3.3"/>
    <path class="st1" d="M8.2,22c0,.2-.1.3-.3.3-.2,0-.3-.1-.3-.3,0-.2.1-.3.3-.3.1,0,.3.1.3.3"/>
    <path class="st1" d="M9.7,21.7c-.1,0-.3-.1-.3-.3,0-.2.1-.3.3-.3.1,0,.3.1.3.3,0,.1-.1.3-.3.3"/>
    <path class="st1" d="M5.8,22.4c.1,0,.3.1.3.3,0,.2-.1.3-.3.3-.2,0-.3-.1-.3-.3,0-.2.1-.3.3-.3"/>
    <path class="st1" d="M7.3,22.4c.2,0,.3.1.3.3,0,.1-.1.3-.3.3-.2,0-.3-.1-.3-.3,0-.1.1-.3.3-.3"/>
    <path class="st1" d="M10.9,22.9c-.1,0-.3-.1-.3-.3,0-.2.1-.3.3-.3.2,0,.3.1.3.3,0,.2-.1.3-.3.3"/>
    <path class="st1" d="M38.3,22.6c0,.2-.1.3-.3.3-.1,0-.3-.1-.3-.3,0-.1.1-.3.3-.3.2,0,.3.1.3.3"/>
    <path class="st1" d="M4.9,21.4c0,.1-.1.3-.3.3-.2,0-.3-.1-.3-.3,0-.2.1-.3.3-.3.2,0,.3.1.3.3"/>
    <path class="st1" d="M36.5,22.4c.2,0,.3.1.3.3,0,.2-.1.3-.3.3-.1,0-.3-.1-.3-.3,0-.2.1-.3.3-.3"/>
    <path class="st1" d="M38.9,22c0,.2-.1.3-.3.3-.1,0-.3-.1-.3-.3,0-.2.1-.3.3-.3.2,0,.3.1.3.3"/>
    <path class="st1" d="M40.4,21.1c.2,0,.3.1.3.3,0,.2-.1.3-.3.3-.2,0-.3-.1-.3-.3,0-.2.1-.3.3-.3"/>
    <path class="st1" d="M5.5,22c0,.1-.1.3-.3.3-.2,0-.3-.1-.3-.3,0-.2.1-.3.3-.3.2,0,.3.1.3.3"/>
    <path class="st1" d="M2.2,22.9c-.2,0-.3-.1-.3-.3s.1-.3.3-.3c.1,0,.3.1.3.3,0,.2-.1.3-.3.3"/>
    <path class="st1" d="M41.6,22.9c-.2,0-.3-.1-.3-.3,0-.1.1-.3.3-.3s.3.1.3.3c0,.2-.1.3-.3.3"/>
    <path class="st1" d="M41,21.8c.1,0,.3.1.3.3,0,.2-.1.3-.3.3-.1,0-.3-.1-.3-.3s.1-.3.3-.3"/>
    <path class="st1" d="M3.1,22c0,.1-.1.3-.3.3-.2,0-.3-.1-.3-.3,0-.2.1-.3.3-.3.1,0,.3.1.3.3"/>
    <path class="st1" d="M3.5,21.1c.1,0,.3.1.3.3s-.1.3-.3.3c-.2,0-.3-.1-.3-.3,0-.2.1-.3.3-.3"/>
  </g>
</svg>