<?xml version="1.0" encoding="UTF-8"?>
<svg id="Layer_1" xmlns="http://www.w3.org/2000/svg" version="1.1" viewBox="0 0 267.2 44">
  <!-- Generator: Adobe Illustrator 29.1.0, SVG Export Plug-In . SVG Version: 2.1.0 Build 142)  -->
  <defs>
    <style>
      .st0 {
        fill: #274e5f;
      }

      .st1 {
        fill: #fff;
      }
    </style>
  </defs>
  <g>
    <rect class="st0" x="29.9" y="10.2" width="237.3" height="23.5"/>
    <path class="st1" d="M22,.8C10.3.8.8,10.3.8,22s9.5,21.2,21.2,21.2,21.2-9.5,21.2-21.2S33.7.8,22,.8h0Z"/>
    <path class="st0" d="M22,44C9.9,44,0,34.1,0,22S9.9,0,22,0s22,9.9,22,22-9.9,22-22,22h0ZM22,.8C10.3.8.8,10.3.8,22s9.5,21.2,21.2,21.2,21.2-9.5,21.2-21.2S33.7.8,22,.8h0Z"/>
    <circle class="st0" cx="22" cy="22" r="19.5"/>
  </g>
  <g>
    <path class="st1" d="M55,26l1.6-1.9c1,.8,2.1,1.2,3.3,1.2s1.2-.3,1.2-.7h0c0-.4-.3-.7-1.7-1-2.2-.5-3.8-1.1-3.8-3.2h0c0-1.9,1.5-3.3,3.9-3.3s3.1.5,4.2,1.3l-1.4,2c-.9-.7-1.9-1-2.8-1s-1,.3-1,.7h0c0,.5.3.7,1.8,1,2.3.5,3.8,1.3,3.8,3.2h0c0,2.1-1.6,3.3-4.1,3.3s-3.5-.6-4.8-1.7h-.2Z"/>
    <path class="st1" d="M64.5,17.3h8.2v2.4h-5.4v1.5h4.9v2.2h-4.9v1.6h5.5v2.4h-8.2v-10.1h0Z"/>
    <path class="st1" d="M73.5,17.3h3l2.4,3.9,2.4-3.9h3v10.1h-2.8v-5.8l-2.6,4h0l-2.6-3.9v5.8h-2.8v-10.1h0Z"/>
    <path class="st1" d="M85.3,17.3h5.2c1.3,0,2.2.3,2.8.9.4.4.7.9.7,1.6h0c0,1.2-.7,1.9-1.6,2.3,1.2.4,2,1.1,2,2.5h0c0,1.8-1.4,2.8-3.8,2.8h-5.2v-10.1h0ZM89.8,21.4c.9,0,1.3-.3,1.3-.9h0c0-.6-.4-.9-1.3-.9h-1.8v1.8h1.8ZM90.2,25.2c.9,0,1.3-.3,1.3-.9h0c0-.6-.4-.9-1.4-.9h-2.1v1.9h2.2Z"/>
    <path class="st1" d="M95,17.3h4.8c1.6,0,2.6.4,3.3,1.1.6.6.9,1.4.9,2.4h0c0,1.6-.8,2.6-2.1,3.1l2.4,3.5h-3.2l-2-3.1h-1.2v3.1h-2.8v-10.1h-.1ZM99.6,22.2c1,0,1.5-.5,1.5-1.2h0c0-.8-.6-1.2-1.5-1.2h-1.8v2.4h1.9,0Z"/>
    <path class="st1" d="M108,17.3h2.7l4.3,10.2h-3l-.7-1.8h-3.9l-.7,1.8h-3s4.3-10.2,4.3-10.2ZM110.4,23.5l-1.1-2.9-1.1,2.9h2.3-.1Z"/>
    <path class="st1" d="M115.3,17.3h3.9c3.6,0,5.7,2.1,5.7,5h0c0,3-2.1,5.1-5.8,5.1h-3.9v-10.1h.1ZM119.2,25c1.7,0,2.8-.9,2.8-2.6h0c0-1.7-1.1-2.6-2.8-2.6h-1.1v5.2h1.1Z"/>
    <path class="st1" d="M125.3,22.4h0c0-2.9,2.3-5.3,5.5-5.3s5.5,2.3,5.5,5.2h0c0,2.9-2.3,5.3-5.5,5.3s-5.5-2.3-5.5-5.2ZM133.3,22.4h0c0-1.5-1.1-2.8-2.6-2.8s-2.6,1.2-2.6,2.7h0c0,1.5,1.1,2.8,2.6,2.8s2.6-1.2,2.6-2.7Z"/>
    <path class="st1" d="M137,17.3h4.8c1.6,0,2.6.4,3.3,1.1.6.6.9,1.4.9,2.4h0c0,1.6-.8,2.6-2.1,3.1l2.4,3.5h-3.2l-2-3.1h-1.2v3.1h-2.8v-10.1h0ZM141.6,22.2c1,0,1.5-.5,1.5-1.2h0c0-.8-.6-1.2-1.5-1.2h-1.8v2.4h1.9,0Z"/>
    <path class="st1" d="M150,17.3h2.7l4.3,10.2h-3l-.7-1.8h-3.9l-.7,1.8h-3l4.3-10.2h0ZM152.4,23.5l-1.1-2.9-1.1,2.9h2.3,0Z"/>
    <path class="st1" d="M156.4,26l1.6-1.9c1,.8,2.1,1.2,3.3,1.2s1.2-.3,1.2-.7h0c0-.4-.3-.7-1.7-1-2.2-.5-3.8-1.1-3.8-3.2h0c0-1.9,1.5-3.3,3.9-3.3s3.1.5,4.2,1.3l-1.4,2c-.9-.7-1.9-1-2.8-1s-1,.3-1,.7h0c0,.5.3.7,1.8,1,2.3.5,3.8,1.3,3.8,3.2h0c0,2.1-1.6,3.3-4.1,3.3s-3.5-.6-4.8-1.7h-.2Z"/>
  </g>
  <g>
    <path class="st1" d="M30.4,21.7h.2c.4,0,.7.4.8.8v9.2c0,2.9,0,.6-.2.8s-.4.3-.7.3h-2.3c-.5,0-1-.4-1-.9v-2q0-.2-.2-.2h-2.9c-.1,0-.2,0-.3.1-.2.3-.5.4-.8.4h-1.8c-.3,0-.6-.1-.8-.4,0,0-.1-.1-.2-.1h-3q-.2,0-.2.2v1.9c0,.7-.5,1.1-1.1,1.1h-2.2c-.8,0-1-.4-1-1v-9c0-.7.2-1,.9-1.1q.1,0,0-.1l-1.6-1.6h-1.8c-.1,0-.2,0-.2.2v.8c0,.3-.1.4-.4.4h-.7c-.3,0-.4-.1-.4-.4v-.8c0-.1,0-.2-.2-.2h-3.1q-.2,0-.2.2v.8c0,.2,0,.3-.4.3h-.8c-.3,0-.4-.1-.4-.4v-.8c0-.1,0-.2-.2-.2q-.4,0-.4-.4v-.8c0-.7.5-1.3,1.3-1.3h5.9c.4,0,.3,0,.3-.3,0-.8.5-1.3,1.3-1.3h5.3c.2,0,.3,0,.3-.2,0-.5.2-.9.7-1.1h7.7c.6,0,1,.3,1.2.8v.4q0,.2.3.2h5.3c.7,0,1.3.5,1.3,1.3s0,.3.3.3h6c.6,0,1.1.4,1.2,1v1.2c0,.2,0,.3-.2.3q-.3,0-.3.3v.6c0,.3,0,.4-.4.4h-.7c-.2,0-.3-.1-.4-.3v-.8c0-.1,0-.2-.2-.2h-3.1c0,0-.2,0-.2.2v.8c0,.3,0,.4-.4.4h-.8c-.3,0-.4-.1-.4-.4v-.8c0-.1,0-.2-.2-.2h-1.8l-1.7,1.7h0M22,21.2h3.3c.4,0,.7-.2.8-.6v-.5c-.1-1.1-.3-2.2-.4-3.3,0-.5-.4-.8-.9-.8h-5.8c-.5,0-.8.3-.9.8,0,.3,0,.7-.1,1-.1.8-.2,1.6-.3,2.4,0,.5.3.9.9.9h3.4M29.9,17.5h2.8c0-.3,0-.6-.4-.6h-5.2q-.2,0-.2.3v.2q0,.2.3.2h2.6M14.1,17.5h2.4c.3,0,.5-.2.5-.5s0-.2-.2-.2h-5.3c-.2,0-.3,0-.3.3h0q0,.3.2.3h2.6M25.2,25.6h.9c.4,0,.8-.4.8-.8s-.3-.8-.8-.8h-.6c-.4,0-.7.2-1,.6-.2.3-.2.6-.3,1q0,.1.1.1h.9M18.8,25.6h.9q.1,0,.1-.1c0-.2,0-.4-.1-.6-.1-.5-.6-.9-1.1-.9h-.6c-.5,0-.8.3-.8.8s.3.8.8.8h.8M14.5,21.2h0v-1.1q0-.1-.1-.1h-1.2c.4.4.8.8,1.3,1.3M30.8,19.9h-1.2s-.1,0-.1.1v1.2c.4-.4.9-.8,1.3-1.3"/>
    <path class="st1" d="M9.5,23.7c0,.2-.1.3-.3.3s-.3-.1-.3-.3.1-.3.3-.3.3.1.3.3"/>
    <path class="st1" d="M9.2,23c-.2,0-.3-.1-.3-.3s.1-.3.3-.3.3.2.3.3c0,.2-.2.3-.3.3"/>
    <path class="st1" d="M34.8,23c-.2,0-.3-.2-.3-.3,0-.2,0-.3.3-.3s.3.1.3.3,0,.3-.3.3"/>
    <path class="st1" d="M4.5,22.7c0,.2,0,.3-.3.3s-.3-.1-.3-.3,0-.3.3-.3.3.1.3.3"/>
    <path class="st1" d="M40.2,22.7c0,.2,0,.3-.3.3s-.3-.1-.3-.3,0-.3.3-.3.3.1.3.3"/>
    <path class="st1" d="M39.9,23.4c.2,0,.3.1.3.3s0,.3-.3.3-.3-.1-.3-.3.2-.3.3-.3"/>
    <path class="st1" d="M35.1,23.7c0,.2,0,.3-.3.3s-.3-.1-.3-.3.2-.3.3-.3c.2,0,.3.1.3.3"/>
    <path class="st1" d="M4.1,24c-.2,0-.3-.1-.3-.3s0-.3.3-.3.3.1.3.3,0,.3-.3.3"/>
    <path class="st1" d="M8.9,21.8c0,.2-.1.3-.3.3s-.3-.1-.3-.3.1-.3.3-.3.3.1.3.3"/>
    <path class="st1" d="M35.4,22.1c0,0-.3-.1-.3-.3s0-.3.3-.3.3.1.3.3,0,.3-.3.3"/>
    <path class="st1" d="M34.3,21.5c.2,0,.3.1.3.3s0,.3-.3.3-.3-.1-.3-.3,0-.3.3-.3"/>
    <path class="st1" d="M10.4,22.7c-.2,0-.3-.1-.3-.3s.1-.3.3-.3.3.1.3.3-.1.3-.3.3"/>
    <path class="st1" d="M33.9,22.4c0,.1,0,.3-.3.3s-.3-.1-.3-.3,0-.3.3-.3.3.1.3.3"/>
    <path class="st1" d="M33.3,23c0,.1,0,.3-.3.3s-.3-.1-.3-.3,0-.3.3-.3.3.1.3.3"/>
    <path class="st1" d="M39.3,21.5c.2,0,.3.1.3.3s0,.3-.3.3-.3-.1-.3-.3,0-.3.3-.3"/>
    <path class="st1" d="M36.3,22.4c0,.2,0,.3-.3.3s-.3-.1-.3-.3,0-.3.3-.3.3.1.3.3"/>
    <path class="st1" d="M8.3,22.4c0,.2-.1.3-.3.3s-.3-.1-.3-.3,0-.3.3-.3.3.1.3.3"/>
    <path class="st1" d="M9.8,22c-.1,0-.3-.1-.3-.3s.1-.3.3-.3.3.1.3.3-.1.3-.3.3"/>
    <path class="st1" d="M5.9,22.7c0,0,.3.1.3.3s0,.3-.3.3-.3-.1-.3-.3,0-.3.3-.3"/>
    <path class="st1" d="M7.4,22.7c.2,0,.3.1.3.3s0,.3-.3.3-.3-.1-.3-.3,0-.3.3-.3"/>
    <path class="st1" d="M11,23.3c-.1,0-.3-.1-.3-.3s.1-.3.3-.3.3.1.3.3-.1.3-.3.3"/>
    <path class="st1" d="M38.4,23c0,.2,0,.3-.3.3s-.3-.1-.3-.3,0-.3.3-.3.3.1.3.3"/>
    <path class="st1" d="M5,21.8c0,.1,0,.3-.3.3s-.3-.1-.3-.3,0-.3.3-.3.3.1.3.3"/>
    <path class="st1" d="M36.6,22.7c.2,0,.3.1.3.3s0,.3-.3.3-.3-.1-.3-.3,0-.3.3-.3"/>
    <path class="st1" d="M39,22.4c0,.2,0,.3-.3.3s-.3-.1-.3-.3,0-.3.3-.3.3.1.3.3"/>
    <path class="st1" d="M40.5,21.5c.2,0,.3.1.3.3s0,.3-.3.3-.3-.1-.3-.3,0-.3.3-.3"/>
    <path class="st1" d="M5.6,22.4c0,.1,0,.3-.3.3s-.3-.1-.3-.3,0-.3.3-.3.3.1.3.3"/>
    <path class="st1" d="M2.3,23.3c-.2,0-.3-.1-.3-.3s0-.3.3-.3.3.1.3.3,0,.3-.3.3"/>
    <path class="st1" d="M41.7,23.3c-.2,0-.3-.1-.3-.3s0-.3.3-.3.3.1.3.3,0,.3-.3.3"/>
    <path class="st1" d="M41.1,22.1c0,0,.3.1.3.3s0,.3-.3.3-.3-.1-.3-.3,0-.3.3-.3"/>
    <path class="st1" d="M3.2,22.4c0,.1,0,.3-.3.3s-.3-.1-.3-.3,0-.3.3-.3.3.1.3.3"/>
    <path class="st1" d="M3.6,21.5c0,0,.3.1.3.3s0,.3-.3.3-.3-.1-.3-.3,0-.3.3-.3"/>
  </g>
</svg>