<?xml version="1.0" encoding="UTF-8"?>
<svg id="Layer_1" xmlns="http://www.w3.org/2000/svg" version="1.1" viewBox="0 0 57.16 105.05">
  <!-- Generator: Adobe Illustrator 29.1.0, SVG Export Plug-In . SVG Version: 2.1.0 Build 142)  -->
  <defs>
    <style>
      .st0 {
        fill: #274e5f;
      }

      .st1 {
        fill: #fff;
      }

      .st2 {
        fill: #609440;
      }
    </style>
  </defs>
  <g>
    <rect class="st2" width="57.16" height="51.48"/>
    <path class="st1" d="M52.82,31.18l-.22-.32-4.4,1.87c-.3-.9-1.08-1.58-2.03-1.73-.27-.34-.57-.74-.34-.85.33-.15,1.73.4,2.12.19.4-.21,2.91-2.32,3.16-2.51.26-.19.2-.64-.03-1.6s-.76-3.1-.9-3.59-.96-1.42-1.44-1.86c-.48-.44-2.18-2.25-2.72-2.55-.55-.3-1.67-.04-2.4.04l-.73.08s-4.27.96-5.14,1.31c-.87.34-1.64,2.05-1.63,2.45-1.09-.12-2.18-.18-2.18-.18l-.21,5.3c.53.33.77.98.4.88-.44-.07-3.74.15-4.67.22.21-.51.24-1.67.24-1.67-.42.11-.76.01-.76.01,0,0-.57-.19-.24-.51s.24-.55.18-.78c-.08-.55-.77-.64-.74-1.17s-.92-6.98-.92-6.98c.18-.09.61-.29.63-.47s-.22-.23-.62-.24-.59-.17-.59-.17l-.04-.37h-.53s-.08.36-.08.36l-1.36-.05.06-.55-4.13-.15.09.56-2.22-.32v.64s.48,0,.83.11c.35.12.35.51.13.74-.22.23-2.04,5.06-2.04,5.06-.42-.09-1.41-.22-1.41-.22.12-.52.33-2.35.38-2.72.04-.37.08-1.31-1.43-1.53l-.18.94c.54,0,.67.41.65.85-.02.44-.23,2.52-.23,2.52l-4.74.84c-.27.18-1.07.88-1.14,1.2-.07.32-.15,1.16-.13,1.31h0c-2.16.19-3.84,2.02-3.81,4.22.04,2.3,1.93,4.13,4.23,4.1,2.3-.04,4.13-1.93,4.1-4.23,0-.07,0-.14,0-.22l2.01-.78s.44-.08.84-.01,2.65.23,3.24.15c.52.26,1.15,1.09,1.15,1.09h.09c-.05.28-.08.56-.08.86.04,2.3,1.93,4.13,4.23,4.1,2.3-.04,4.13-1.93,4.1-4.23,0-.22-.03-.44-.06-.66,1.27-.12,6.41-.61,7.05-.63.73-.02,2.35.41,3.07,1.11s-.02,1.42-2.68,1.17c-.15.77-.18,1.22-.18,1.22,0,0,1.35-.1.75.53-.6.63-.96,1.57-.96,1.57l3.3.3-.11-.85c.94.03,2.38.03,2.75-.44.37-.48.65-.67.79-.81.08-.08.21-.1.3,0-.02.14-.04.29-.03.44.02,1.42,1.19,2.56,2.62,2.54,1.42-.02,2.56-1.19,2.54-2.62,0-.08,0-.15-.02-.23l4.5-2.1ZM34.3,29.16c-.53.07-4.34.36-5.26.42-.03-.12-.07-.24-.12-.35.1-.15.21-.32.3-.47l5.25-.4h.05c.31-.03.38.72-.22.8ZM35.84,27.33l-1.89-.18.07-2.2,1.93.12-.12,2.26ZM35.95,24.68l-1.89-.18.13-2.1,1.93.12-.18,2.16Z"/>
  </g>
  <g>
    <rect class="st0" y="53.58" width="57.16" height="51.48"/>
    <path class="st1" d="M22.34,75.77v7.69s-2.38-1.4-2.38-1.4v10.49h-3.92v-14.13s6.3-2.66,6.3-2.66ZM42.35,79.4c0,.77.63,1.4,1.4,1.4s1.4-.63,1.4-1.4c0-.77-.63-1.4-1.4-1.4s-1.4.63-1.4,1.4ZM36.33,79.4c0,.77.63,1.4,1.4,1.4s1.4-.63,1.4-1.4c0-.77-.63-1.4-1.4-1.4-.77,0-1.4.63-1.4,1.4ZM30.32,79.4c0,.77.63,1.4,1.4,1.4s1.4-.63,1.4-1.4c0-.77-.63-1.4-1.4-1.4s-1.4.63-1.4,1.4ZM24.3,79.4c0,.77.63,1.4,1.4,1.4s1.4-.63,1.4-1.4c0-.77-.63-1.4-1.4-1.4s-1.4.63-1.4,1.4ZM39.27,66.95c0,.77.63,1.4,1.4,1.4.77,0,1.4-.63,1.4-1.4,0-.77-.63-1.4-1.4-1.4s-1.4.63-1.4,1.4ZM34.23,69.75c0,.77.63,1.4,1.4,1.4s1.4-.63,1.4-1.4c0-.77-.63-1.4-1.4-1.4-.77,0-1.4.63-1.4,1.4ZM29.2,72.55c0,.77.63,1.4,1.4,1.4s1.4-.63,1.4-1.4-.63-1.4-1.4-1.4-1.4.63-1.4,1.4ZM24.16,75.35c0,.77.63,1.4,1.4,1.4.77,0,1.4-.63,1.4-1.4,0-.77-.63-1.4-1.4-1.4s-1.4.63-1.4,1.4ZM40.67,92.69c.77,0,1.4-.63,1.4-1.4,0-.77-.63-1.4-1.4-1.4s-1.4.63-1.4,1.4c0,.77.63,1.4,1.4,1.4ZM35.63,89.9c.77,0,1.4-.63,1.4-1.4,0-.77-.63-1.4-1.4-1.4s-1.4.63-1.4,1.4c0,.77.63,1.4,1.4,1.4ZM30.6,87.1c.77,0,1.4-.63,1.4-1.4s-.63-1.4-1.4-1.4-1.4.63-1.4,1.4c0,.77.63,1.4,1.4,1.4ZM25.56,84.3c.77,0,1.4-.63,1.4-1.4,0-.77-.63-1.4-1.4-1.4s-1.4.63-1.4,1.4c0,.77.63,1.4,1.4,1.4Z"/>
  </g>
</svg>