<?xml version="1.0" encoding="UTF-8"?>
<svg id="Layer_1" xmlns="http://www.w3.org/2000/svg" version="1.1" viewBox="0 0 267.2 44">
  <!-- Generator: Adobe Illustrator 29.1.0, SVG Export Plug-In . SVG Version: 2.1.0 Build 142)  -->
  <defs>
    <style>
      .st0 {
        fill: #fff;
      }

      .st1 {
        fill: #609440;
      }
    </style>
  </defs>
  <g>
    <rect class="st1" x="29.9" y="10.2" width="237.3" height="23.5"/>
    <path class="st0" d="M22,.8C10.3.8.8,10.3.8,22s9.5,21.2,21.2,21.2,21.2-9.5,21.2-21.2S33.7.8,22,.8h0Z"/>
    <path class="st1" d="M22,44C9.9,44,0,34.1,0,22S9.9,0,22,0s22,9.9,22,22-9.9,22-22,22h0ZM22,.8C10.3.8.8,10.3.8,22s9.5,21.2,21.2,21.2,21.2-9.5,21.2-21.2S33.7.8,22,.8h0Z"/>
    <circle class="st1" cx="22" cy="22" r="19.5"/>
  </g>
  <g>
    <path class="st0" d="M55.8,17.3h4.3c2.6,0,4.2,1.3,4.2,3.6h0c0,2.4-1.8,3.7-4.4,3.7h-1.4v2.9h-2.8v-10.1h.1ZM59.9,22.4c1,0,1.6-.5,1.6-1.3h0c0-.9-.6-1.4-1.6-1.4h-1.3v2.7s1.3,0,1.3,0Z"/>
    <path class="st0" d="M64.7,23v-5.7h2.9v5.6c0,1.5.7,2.2,1.9,2.2s1.9-.7,1.9-2.1v-5.7h2.9v5.6c0,3.3-1.9,4.7-4.8,4.7s-4.7-1.5-4.7-4.6h-.1Z"/>
    <path class="st0" d="M75.1,17.3h2.8v7.7h4.9v2.5h-7.7v-10.1h0Z"/>
    <path class="st0" d="M80.8,17.3h3.1l2.3,6.4,2.3-6.4h3.1l-4.1,10.2h-2.6s-4.1-10.2-4.1-10.2Z"/>
    <path class="st0" d="M91.9,17.3h8.2v2.4h-5.4v1.5h4.9v2.2h-4.9v1.6h5.5v2.4h-8.2v-10.1h0Z"/>
    <path class="st0" d="M100.9,17.3h4.8c1.6,0,2.6.4,3.3,1.1.6.6.9,1.4.9,2.4h0c0,1.6-.8,2.6-2.1,3.1l2.4,3.5h-3.2l-2-3.1h-1.2v3.1h-2.8v-10.1h-.1ZM105.5,22.2c1,0,1.5-.5,1.5-1.2h0c0-.8-.6-1.2-1.5-1.2h-1.8v2.4h1.9,0Z"/>
    <path class="st0" d="M110.6,17.3h2.8v10.1h-2.8v-10.1Z"/>
    <path class="st0" d="M114.2,25.4l5.1-5.7h-4.9v-2.4h8.8v2l-5.1,5.7h5.1v2.4h-9v-2Z"/>
    <path class="st0" d="M127.5,17.3h2.7l4.3,10.2h-3l-.7-1.8h-3.9l-.7,1.8h-3s4.3-10.2,4.3-10.2ZM129.9,23.5l-1.1-2.9-1.1,2.9h2.3,0Z"/>
    <path class="st0" d="M134.7,17.3h3.9c3.6,0,5.7,2.1,5.7,5h0c0,3-2.1,5.1-5.8,5.1h-3.9v-10.1h.1ZM138.7,25c1.7,0,2.8-.9,2.8-2.6h0c0-1.7-1.1-2.6-2.8-2.6h-1.1v5.2h1.1Z"/>
    <path class="st0" d="M144.8,22.4h0c0-2.9,2.3-5.3,5.5-5.3s5.5,2.3,5.5,5.2h0c0,2.9-2.3,5.3-5.5,5.3s-5.5-2.3-5.5-5.2ZM152.8,22.4h0c0-1.5-1.1-2.8-2.6-2.8s-2.6,1.2-2.6,2.7h0c0,1.5,1.1,2.8,2.6,2.8s2.6-1.2,2.6-2.7Z"/>
    <path class="st0" d="M156.4,17.3h4.8c1.6,0,2.6.4,3.3,1.1.6.6.9,1.4.9,2.4h0c0,1.6-.8,2.6-2.1,3.1l2.4,3.5h-3.2l-2-3.1h-1.2v3.1h-2.8v-10.1h0ZM161.1,22.2c1,0,1.5-.5,1.5-1.2h0c0-.8-.6-1.2-1.5-1.2h-1.8v2.4h1.9,0Z"/>
    <path class="st0" d="M166.1,17.3h8.2v2.4h-5.4v1.5h4.9v2.2h-4.9v1.6h5.5v2.4h-8.2v-10.1h-.1Z"/>
    <path class="st0" d="M174.3,26l1.6-1.9c1,.8,2.1,1.2,3.3,1.2s1.2-.3,1.2-.7h0c0-.4-.3-.7-1.7-1-2.2-.5-3.8-1.1-3.8-3.2h0c0-1.9,1.5-3.3,3.9-3.3s3.1.5,4.2,1.3l-1.4,2c-.9-.7-1.9-1-2.8-1s-1,.3-1,.7h0c0,.5.3.7,1.8,1,2.3.5,3.8,1.3,3.8,3.2h0c0,2.1-1.6,3.3-4.1,3.3s-3.5-.6-4.8-1.7h-.2Z"/>
  </g>
  <path class="st0" d="M38.1,22.8v-2.9c0-.3-.2-.5-.5-.6h-.4c-.3,0-.6.1-.6.4v.2c0,.2,0,.4,0,.7v4.9c-.5.5-1,1-1.6,1.5v-12.5c0-1.9-.5-2.7-2.3-3v-1.6c0-.3-.3-.6-.6-.6h-4.5c-.3,0-.6.3-.6.6v1.5h-1.9v-2.5c0-.3-.3-.6-.6-.6h-2.6c-.3,0-.6.2-.6.5v.8h-2.6c-2.4,0-3.3.9-3.3,3.4v18.6h0v1c0,.7-.7,1.3-1.5,1.3s-1.5-.4-1.6-1v-4.1h.8c.3-.1.5-.4.5-.7v-5.9c0-.5-.3-.9-.6-1.2-.1-.1-.2-.3-.3-.4,0-.1-.1-.2-.2-.3,0-.1-.3-.4-.3-.5v-6.9c0-.7-.7-1.4-.9-1.6-.2-.2-1.1-.9-1.9-.8-.4,0-.5.3-.6.5h0c-.2.3,0,.6.2.8,0,0,.2.1.2.2.2.1.4.3.7.4.6.2.7.6.7,1.3v6.1c0,.4,0,.5-.3.7-.5.3-1,1-1.1,1.7v6c0,.6.2.5.5.6h.9v3.4c.1,1,.4,1.9.9,2.5.6.7,1.4,1.1,2.2,1.1s.9,0,1.3-.3c1.3-.5,2.1-1.6,2.1-3V12.7c0-1.3.4-1.3.7-1.3h2.8c-1.8.2-2.4.9-2.4,3v16.7c0,1.9.8,2.7,2.7,2.7h11.7c1.4,0,2.3-.8,2.4-2.2v-1.4c0-.4.2-.8.4-1,.3-.3.6-.7,1-1,.7-.7,1.4-1.4,1.8-2.3.4-1,.3-2,.2-3.1M23.1,11.3h-.3v-1.3h.3v1.3ZM28.6,11h2v.3h-2v-.3ZM22.2,32h-.7c-.8,0-1.5,0-1.6-.1-.2-.2-.2-1.3-.2-2.3v-15.6c0-.9.1-1,1-1h11.4c.8,0,.9.2.9,1v17c0,.9,0,1-1,1h-9.8ZM10.5,22.5c0-.1.4-.5.6-.5h.2c.1,0,.2.3.2.4v4.6h-1.1v-4.6"/>
</svg>